<svg xmlns="http://www.w3.org/2000/svg" xmlns:xlink="http://www.w3.org/1999/xlink" version="1.1" style="" xml:space="preserve" width="590" height="359" viewBox="0 0 590 359"><rect id="backgroundrect" width="100%" height="100%" x="0" y="0" fill="none" stroke="none"/>
<style type="text/css">
	.st0{enable-background:new    ;}
	.st1{fill-rule:evenodd;clip-rule:evenodd;fill:#CCE9FF;}
	.st2{fill-rule:evenodd;clip-rule:evenodd;fill:#F2F2F2;}
	.st3{fill-rule:evenodd;clip-rule:evenodd;fill:#D3D3D3;}
	.st4{fill-rule:evenodd;clip-rule:evenodd;fill:#0B4870;}
	.st5{fill-rule:evenodd;clip-rule:evenodd;fill:#30C34F;}
	.st6{fill-rule:evenodd;clip-rule:evenodd;fill:#D54949;}
	.st7{fill-rule:evenodd;clip-rule:evenodd;fill:#FFBE55;}
	.st8{fill-rule:evenodd;clip-rule:evenodd;fill:#F8B8A9;}
	.st9{fill-rule:evenodd;clip-rule:evenodd;fill:#2A94F4;}
	.st10{fill-rule:evenodd;clip-rule:evenodd;fill:#1D81DB;}
	.st11{fill-rule:evenodd;clip-rule:evenodd;fill:#FFE3CA;}
	.st12{fill-rule:evenodd;clip-rule:evenodd;fill:#FCD2B1;}
	.st13{fill-rule:evenodd;clip-rule:evenodd;fill:#004970;}
	.st14{fill-rule:evenodd;clip-rule:evenodd;fill:#FED17A;}
	.st15{fill-rule:evenodd;clip-rule:evenodd;fill:#01384F;}
</style>




<g class="currentLayer" style=""><title>Layer 1</title><g id="Shape_9_1_" class="st0">
	<g id="Shape_9">
		<g id="svg_1">
			<path class="st1" d="M568.5805419921875,158.17515869140624 C582.5805419921875,-16.72484130859374 418.6805419921875,-11.724841308593739 384.3805419921875,11.97515869140625 c-34.3,23.8 -42.7,44.2 -87,42.5 s-63.9,-19.7 -121.3,0.7000000000000001 C118.6805419921875,75.47515869140625 125.98054199218751,128.97515869140625 121.7805419921875,159.47515869140625 c-4.3,30.5 6.9,46.3 -66.3,83.2 S4.880541992187503,350.1751586914063 3.2805419921874943,357.5751586914063 c-1.6,7.4 584,-17 584,-17 S554.4805419921875,332.97515869140625 568.5805419921875,158.17515869140624 z" id="svg_2"/>
		</g>
	</g>
</g><g id="monitor_1_" class="">
	<g id="Ellipse_2">
		<g id="svg_3">
			<ellipse class="st2" cx="479.780517578125" cy="339.6751708984375" rx="21.200000762939453" ry="16" id="svg_4"/>
		</g>
	</g>
	<g id="Ellipse_2_copy">
		<g id="svg_5">
			<path class="st3" d="M479.7805419921875,323.67515869140624 c-4.8,0 -9.2,1.2 -12.8,3.2 c-0.7000000000000001,0.4 9.4,3.5 25.8,0.2 C489.1805419921875,324.97515869140625 484.6805419921875,323.67515869140624 479.7805419921875,323.67515869140624 z" id="svg_6"/>
		</g>
	</g>
	<g id="Rectangle_6">
		<g id="svg_7">
			<rect x="479.38055419921875" y="323.6751708984375" class="st2" width="1.2000000476837158" height="2.4000000953674316" id="svg_8"/>
		</g>
	</g>
	<g id="Rounded_Rectangle_1">
		<g id="svg_9">
			<path class="st3" d="M525.6805419921875,92.87515869140623 H229.4805419921875 c-1.3,0 -2.4,1.1 -2.4,2.4 v198.7 c0,1.3 1.1,2.4 2.4,2.4 h160.7 v44.5 h24.1 v-44.5 H525.6805419921875 c1.3,0 2.4,-1.1 2.4,-2.4 V95.27515869140626 C528.0805419921875,93.97515869140625 527.0805419921875,92.87515869140623 525.6805419921875,92.87515869140623 z" id="svg_10"/>
		</g>
	</g>
	<g id="Rounded_Rectangle_1_copy_2">
		<g id="svg_11">
			<path class="st2" d="M515.4805419921875,92.87515869140623 H219.28054199218752 c-1.3,0 -2.4,1.1 -2.4,2.4 v198.7 c0,1.3 1.1,2.4 2.4,2.4 h123.3 v44.5 h61.8 v-44.5 h111.1 c1.3,0 2.4,-1.1 2.4,-2.4 V95.27515869140626 C517.8805419921875,93.97515869140625 516.8805419921875,92.87515869140623 515.4805419921875,92.87515869140623 z" id="svg_12"/>
		</g>
	</g>
	<g id="Rounded_Rectangle_1_copy">
		<g id="svg_13">
			<path class="st3" d="M501.2805419921875,105.77515869140626 H233.58054199218748 c-1.3,0 -2.4,1.1 -2.4,2.4 V263.47515869140625 c0,1.3 1.1,2.4 2.4,2.4 h267.7 c1.3,0 2.4,-1.1 2.4,-2.4 V108.17515869140624 C503.6805419921875,106.87515869140623 502.5805419921875,105.77515869140626 501.2805419921875,105.77515869140626 z" id="svg_14"/>
		</g>
	</g>
	<g id="Rectangle_2">
		<g id="svg_15">
			<rect x="255.98052978515625" y="116.6751708984375" class="st4" width="223.89999389648438" height="138.3000030517578" id="svg_16"/>
		</g>
	</g>
	<g id="Rectangle_3">
		<g id="svg_17">
			<rect x="295.6805419921875" y="327.3751525878906" class="st4" width="153.89999389648438" height="8.800000190734863" id="svg_18"/>
		</g>
	</g>
	<g id="Rectangle_2_copy">
		<g id="svg_19">
			<path class="st2" d="M255.9805419921875,116.67515869140624 v15 h223.9 v-15 H255.9805419921875 zM281.0805419921875,154.77515869140626 h7.5 v-7.5 h-7.5 V154.77515869140626 zM281.0805419921875,168.27515869140626 h7.5 v-7.5 h-7.5 V168.27515869140626 zM281.0805419921875,181.87515869140623 h7.5 V174.47515869140625 h-7.5 V181.87515869140623 zM281.0805419921875,195.47515869140625 h7.5 v-7.5 h-7.5 V195.47515869140625 zM281.0805419921875,209.07515869140627 h7.5 v-7.5 h-7.5 V209.07515869140627 zM281.0805419921875,222.67515869140624 h7.5 v-7.5 h-7.5 V222.67515869140624 zM281.0805419921875,236.27515869140626 h7.5 v-7.5 h-7.5 V236.27515869140626 z" id="svg_20"/>
		</g>
	</g>
	<g id="Rectangle_2_copy_2">
		<g id="svg_21">
			<path class="st5" d="M298.0805419921875,168.27515869140626 h25.1 v-7.5 h-25.1 V168.27515869140626 zM422.0805419921875,147.27515869140626 h-30.9 v7.5 h30.9 V147.27515869140626 zM453.38054199218755,147.27515869140626 h-24.5 v7.5 h24.5 V147.27515869140626 zM453.38054199218755,160.87515869140623 h-29.9 v7.5 h29.9 V160.87515869140623 zM402.0805419921875,188.07515869140627 v7.5 H453.6805419921875 v-7.5 H402.0805419921875 zM395.9805419921875,188.07515869140627 h-51.6 v7.5 h51.6 V188.07515869140627 zM433.6805419921875,201.57515869140627 h-79.5 v7.5 H433.6805419921875 V201.57515869140627 zM414.2805419921875,222.67515869140624 h39.1 v-7.5 h-39.1 V222.67515869140624 z" id="svg_22"/>
		</g>
	</g>
	<g id="Ellipse_1">
		<g id="svg_23">
			<path class="st6" d="M266.2805419921875,120.77515869140626 c-2,0 -3.6,1.6 -3.6,3.6 c0,2 1.6,3.6 3.6,3.6 c2,0 3.6,-1.6 3.6,-3.6 C269.8805419921875,122.37515869140623 268.2805419921875,120.77515869140626 266.2805419921875,120.77515869140626 zM298.0805419921875,154.77515869140626 h49.9 v-7.5 h-49.9 V154.77515869140626 zM453.38054199218755,174.47515869140625 h-103 v7.5 h103 V174.47515869140625 zM298.0805419921875,195.47515869140625 h39.8 v-7.5 h-39.8 V195.47515869140625 zM298.0805419921875,222.67515869140624 h39.8 v-7.5 h-39.8 V222.67515869140624 zM298.0805419921875,236.27515869140626 h34.3 v-7.5 h-34.3 V236.27515869140626 zM416.6805419921875,160.87515869140623 h-30.9 v7.5 H416.6805419921875 V160.87515869140623 zM439.4805419921875,201.57515869140627 v7.5 H453.6805419921875 v-7.5 H439.4805419921875 z" id="svg_24"/>
		</g>
	</g>
	<g id="Ellipse_1_copy">
		<g id="svg_25">
			<path class="st7" d="M276.8805419921875,120.77515869140626 c-2,0 -3.6,1.6 -3.6,3.6 c0,2 1.6,3.6 3.6,3.6 s3.6,-1.6 3.6,-3.6 C280.3805419921875,122.37515869140623 278.7805419921875,120.77515869140626 276.8805419921875,120.77515869140626 zM343.9805419921875,174.47515869140625 h-45.9 v7.5 h45.9 V174.47515869140625 zM348.0805419921875,201.57515869140627 h-49.9 v7.5 h49.9 V201.57515869140627 zM385.0805419921875,147.27515869140626 h-30.9 v7.5 h30.9 V147.27515869140626 zM379.2805419921875,160.87515869140623 h-49.9 v7.5 h49.9 V160.87515869140623 zM338.8805419921875,228.77515869140626 v7.5 H453.6805419921875 v-7.5 H338.8805419921875 zM343.9805419921875,222.67515869140624 h64.9 v-7.5 h-64.9 V222.67515869140624 z" id="svg_26"/>
		</g>
	</g>
	<g id="Ellipse_1_copy_2">
		<g id="svg_27">
			<circle class="st5" cx="287.0805358886719" cy="124.275146484375" r="3.5999999046325684" id="svg_28"/>
		</g>
	</g>
	<g id="Rectangle_1">
		<g id="svg_29">
			<rect x="0.08054351806640625" y="336.1751708984375" class="st7" width="589.9000244140625" height="22.799999237060547" id="svg_30"/>
		</g>
	</g>
</g><g id="person_1_" class="">
	<g id="Shape_12">
		<g id="svg_31">
			<path class="st8" d="M174.1805419921875,74.77515869140626 c0,0 -35.8,-19.7 -58.2,4.9 c-22.4,24.6 -34.5,19.2 -28.9,67.2 l-2.8,24.4 l41.9,4.5 l0.8,-15.9 c0,0 35.2,10.8 41.9,-28.1 C175.5805419921875,92.87515869140623 174.1805419921875,74.77515869140626 174.1805419921875,74.77515869140626 z" id="svg_32"/>
		</g>
	</g>
	<g id="Shape_15">
		<g id="svg_33">
			<path class="st8" d="M305.5805419921875,311.0751586914063 v16.6 h48.6 C343.7805419921875,311.8751586914062 305.5805419921875,311.0751586914063 305.5805419921875,311.0751586914063 z" id="svg_34"/>
		</g>
	</g>
	<g id="Shape_10">
		<g id="svg_35">
			<path class="st9" d="M96.88054199218749,170.07515869140627 c-25.8,-1.1 -52.7,14.1 -56.7,89.9 c3.7,97.4 18.4,97.9 18.4,97.9 l120.6,0.7000000000000001 C179.1805419921875,358.5751586914063 200.6805419921875,166.77515869140626 96.88054199218749,170.07515869140627 z" id="svg_36"/>
		</g>
	</g>
	<g id="Shape_11">
		<g id="svg_37">
			<path class="st10" d="M303.5805419921875,304.67515869140624 c-22,-2.3 -29.6,-1.7000000000000002 -72.5,-6.9 c-49.5,-38.5 -76.2,-131.2 -104.5,-109.8 c-4.6,1.7000000000000002 -22.5,14.9 27.7,83.3 c50.3,68.4 53.9,66.7 95,66.4 s51.6,-1.2 51.6,-1.2 S311.8805419921875,318.67515869140624 303.5805419921875,304.67515869140624 z" id="svg_38"/>
		</g>
	</g>
	<g id="Shape_13">
		<g id="svg_39">
			<path class="st11" d="M118.0805419921875,260.3751586914062 c-41.3,-4 -96.9,-1.6 -96.9,-1.6 s-24.5,2.8 -20.8,30.1 v69.7 h158.3 C158.7805419921875,358.6751586914063 159.3805419921875,264.47515869140625 118.0805419921875,260.3751586914062 z" id="svg_40"/>
		</g>
	</g>
	<g id="Shape_13_copy">
		<g id="svg_41">
			<path class="st12" d="M109.98054199218751,267.3751586914062 c-38.4,-3.8 -90.2,-1.5 -90.2,-1.5 s-22.8,2.6 -19.3,28 v64.8 h147.4 C147.8805419921875,358.5751586914063 148.4805419921875,271.0751586914063 109.98054199218751,267.3751586914062 z" id="svg_42"/>
		</g>
	</g>
	<g id="Shape_14">
		<g id="svg_43">
			<path class="st4" d="M158.8805419921875,50.875158691406256 c-11.6,-15.5 -30.6,-16.9 -64.7,-4.6 s-38.8,70.2 -24.5,93.1 s46.8,11.2 45.5,-1.4 c-1.2,-12.6 -8.7,-33.9 3.4,-31.3 c12.1,2.6 15.9,-12.2 15.3,-21.4 c-0.6000000000000001,-9.2 39.2,-4.5 44.9,-13.9 C184.4805419921875,62.075158691406244 170.4805419921875,66.37515869140626 158.8805419921875,50.875158691406256 z" id="svg_44"/>
		</g>
	</g>
</g><g id="pot_1_" class="">
	<g id="Shape_16">
		<g id="svg_45">
			<path class="st13" d="M549.6805419921875,303.17515869140624 c1,-0.2 1.9,-0.4 2.8,-0.9 c1.3,-0.7000000000000001 2.2,-1.9 3.1,-3.1 c1.1,-1.5 2.3,-3.2 2,-5 c-0.30000000000000004,-1.5 -2.4,-2.6 -3.5,-1.8 c1.3,-1.5 2.7,-3 3,-5 c0.4,-2.1 -0.8,-4.8 -3,-5 c-1.4,-0.2 -2.6,0.7000000000000001 -3.6,1.8 c0.8,-1.7000000000000002 1.1,-3.6 0.7000000000000001,-5.4 c-0.2,-0.6000000000000001 -0.4,-1.2 -0.9,-1.5 c-0.9,-0.5 -2,-0.1 -2.9,0.4 c-2.9,1.7000000000000002 -5.4,4.2 -7.1,7.2 c0.6000000000000001,-1.5 1,-3 1,-4.6 c-0.1,-2.5 -2,-5 -4.5,-5 c-1,0.1 -2,0.5 -2.9,1.1 c-2.7,1.8 -4.7,4.7 -5.4,7.9 c0.5,-3.1 0.2,-6.4 -0.9,-9.3 c-0.4,-1.1 -1.2,-2.4 -2.4,-2.4 c-0.8,0 -1.5,0.6000000000000001 -2,1.2 c-2,2.2 -3.3,5 -3.8,7.9 c-0.1,-2.3 -0.2,-4.8 -1.5,-6.8 c-1.3,-2 -4.2,-3.1 -6.1,-1.7000000000000002 c-0.9,0.7000000000000001 -1.4,1.9 -1.8,3.1 c-1.1,3.7 -1.4,7.7 -0.7000000000000001,11.5 c-0.7000000000000001,-2.3 -1.8,-4.5 -3.2,-6.5 c-0.9,-1.2 -2.5,-2.4 -3.7,-1.6 c-0.8,0.6000000000000001 -0.9,1.7000000000000002 -0.8,2.7 c0.2,3.6 1.4,7.2 3.3,10.3 c-1.1,-1.8 -2.3,-3.6 -3.6,-5.3 c-0.4,-0.6000000000000001 -1,-1.2 -1.7000000000000002,-1.4 c-1.1,-0.2 -2.2,0.6000000000000001 -2.5,1.7000000000000002 c-0.30000000000000004,1.1 -0.1,2.2 0.30000000000000004,3.3 c3.3,9.8 11.9,11.3 20.6,12.8 c1.9,0.30000000000000004 3.8,0.6000000000000001 5.7,0.8 H499.6805419921875 l7.6,26.5 c0.4,2.9 2.9,5.1 5.7,5.1 h30.5 c2.8,0 5.3,-2.2 5.8,-5.1 l7.6,-26.5 h-15.7 C543.9805419921875,304.27515869140626 546.8805419921875,303.8751586914062 549.6805419921875,303.17515869140624 z" id="svg_46"/>
		</g>
	</g>
	<g id="Shape_16_copy">
		<g id="svg_47">
			<path class="st14" d="M557.5805419921875,294.17515869140624 c-0.30000000000000004,-1.5 -2.4,-2.6 -3.5,-1.8 c1.3,-1.5 2.7,-3 3,-5 c0.4,-2.1 -0.8,-4.8 -3,-5 c-1.4,-0.2 -2.6,0.7000000000000001 -3.6,1.8 c0.8,-1.7000000000000002 1.1,-3.6 0.7000000000000001,-5.4 c-0.2,-0.6000000000000001 -0.4,-1.2 -0.9,-1.5 c-0.9,-0.5 -2,-0.1 -2.9,0.4 c-2.9,1.7000000000000002 -5.4,4.2 -7.1,7.2 c0.6000000000000001,-1.5 1,-3 1,-4.6 c-0.1,-2.5 -2,-5 -4.5,-5 c-1,0.1 -2,0.5 -2.9,1.1 c-2.7,1.8 -4.7,4.7 -5.4,7.9 c0.5,-3.1 0.2,-6.4 -0.9,-9.3 c-0.4,-1.1 -1.2,-2.4 -2.4,-2.4 c-0.8,0 -1.5,0.6000000000000001 -2,1.2 c-2,2.2 -3.3,5 -3.8,7.9 c-0.1,-2.3 -0.2,-4.8 -1.5,-6.8 c-1.3,-2 -4.2,-3.1 -6.1,-1.7000000000000002 c-0.9,0.7000000000000001 -1.4,1.9 -1.8,3.1 c-1.1,3.7 -1.4,7.7 -0.7000000000000001,11.5 c-0.7000000000000001,-2.3 -1.8,-4.5 -3.2,-6.5 c-0.9,-1.2 -2.5,-2.4 -3.7,-1.6 c-0.8,0.6000000000000001 -0.9,1.7000000000000002 -0.8,2.7 c0.2,3.6 1.4,7.2 3.3,10.3 c-1.1,-1.8 -2.3,-3.6 -3.6,-5.3 c-0.4,-0.6000000000000001 -1,-1.2 -1.7000000000000002,-1.4 c-1.1,-0.2 -2.2,0.6000000000000001 -2.5,1.7000000000000002 c-0.30000000000000004,1.1 -0.1,2.2 0.30000000000000004,3.3 c3.3,9.8 11.9,11.3 20.6,12.8 c10.4,1.9 21.3,1.7000000000000002 31.7,-0.6000000000000001 c1,-0.2 1.9,-0.4 2.8,-0.9 c1.3,-0.7000000000000001 2.2,-1.9 3.1,-3.1 C556.6805419921875,297.67515869140624 557.8805419921875,295.97515869140625 557.5805419921875,294.17515869140624 z" id="svg_48"/>
		</g>
	</g>
	<g id="Rectangle_5">
		<g id="svg_49">
			<path class="st7" d="M554.7805419921875,293.0751586914063 c-0.2,-2 -1.7000000000000002,-4 -3.7,-4.5 c-2.1,-0.5 -4.4,1.1 -4.4,3.2 c0.4,-2.8 0.30000000000000004,-6.5 -2.3,-7.5 c-0.7000000000000001,-0.30000000000000004 -1.5,-0.30000000000000004 -2.3,-0.2 c-3.8,0.4 -7.4,2.1 -10.1,4.8 c1.4,-1.9 1.2,-4.7 -0.30000000000000004,-6.4 s-4.3,-2.2 -6.3,-1.1 c-2.5,1.4 -3.4,4.4 -4.1,7.2 c-0.4,-4.8 -6.5,-8.2 -10.8,-6 c-0.8,0.4 -1.6,1 -2,1.8 c-1.5,2.8 1.4,6.1 1,9.3 c-1.5,-1.6 -3.1,-3.2 -5.1,-3.9 c-2,-0.7000000000000001 -4.7,-0.2 -5.7,1.7000000000000002 c-0.5,1 -0.5,2.2 -0.30000000000000004,3.3 c1.7000000000000002,9.1 12.9,7.8 19.7,7.9 c9.7,0.30000000000000004 19.3,0 28.9,-0.2 c0.9,0 1.8,0 2.6,-0.30000000000000004 c1.6,-0.5 2.7,-1.8 3.6,-3.2 C554.2805419921875,297.27515869140626 554.9805419921875,295.17515869140624 554.7805419921875,293.0751586914063 z" id="svg_50"/>
		</g>
	</g>
	<g id="Rectangle_4">
		<g id="svg_51">
			<path class="st15" d="M558.6805419921875,299.27515869140626 h-61.2 c-1.9,0 -3.5,1.6 -3.5,3.5 v3.3 c0,1.9 1.6,3.5 3.5,3.5 H558.6805419921875 c1.9,0 3.5,-1.6 3.5,-3.5 v-3.3 C562.1805419921875,300.8751586914062 560.5805419921875,299.27515869140626 558.6805419921875,299.27515869140626 z" id="svg_52"/>
		</g>
	</g>
</g></g></svg>