<svg xmlns="http://www.w3.org/2000/svg" data-v-fde0c5aa="" width="220" height="84" style=""  viewBox="0 0 220 84"><rect id="backgroundrect" width="100%" height="100%" x="0" y="0" fill="none" stroke="none" class="" style=""/><!----><defs data-v-fde0c5aa=""><!----></defs><defs data-v-fde0c5aa=""><!----></defs><defs data-v-fde0c5aa=""><!----></defs><defs data-v-fde0c5aa=""><!----></defs><g class="currentLayer" style=""><title>Layer 1</title><g data-v-fde0c5aa="" id="bfcb552e-bbfc-4cee-9e16-0dd500e6d470" fill="#FFFFFF" class=""><path d="M96.82377423744123,43.87500465470731 C96.28872395029828,49.26372540379006 101.75388045468713,51.48036230766806 106.72220454958614,51.48036230766806 C112.34023256458727,51.48036230766806 116.42954547346568,48.690457238994014 116.42954547346568,43.798568899401175 C116.42954547346568,34.70271401797075 102.02140559825864,38.14232300674695 102.02140559825864,31.98924470460284 C102.02140559825864,29.887261433684046 103.85586372560596,28.93181449235732 106.6075509166269,28.93181449235732 C111.00260684672986,28.93181449235732 111.65231076683204,31.568848050419092 111.34656774560747,33.28865254480718 L115.62697004275122,32.52429499174582 C116.46776335111875,27.747060285112184 112.03448954336272,25.415769748274954 106.83685818254534,25.415769748274954 C100.64556200274814,25.415769748274954 97.62634966815568,28.626071471132775 97.62634966815568,32.75360225766423 C97.62634966815568,41.65836775082931 111.91983591040352,38.63915541623686 111.91983591040352,44.60114433011563 C111.91983591040352,46.855999111646696 109.74141688417859,47.92609968593263 106.56933303897384,47.92609968593263 C102.44180225244239,47.92609968593263 100.64556200274814,45.8623342926669 100.91308714631964,43.22530073460513 zM139.05452904408256,50.71600475460667 L143.33493134122628,50.71600475460667 L143.33493134122628,32.94469164592957 C143.33493134122628,27.708842407459088 140.04819386306235,25.415769748274954 135.88244519887783,25.415769748274954 C130.49372444979508,25.415769748274954 128.08599815765172,28.817160859398115 127.20698697163115,30.651618986745405 L127.20698697163115,12.307037713272265 L122.9265846744874,12.307037713272265 L122.9265846744874,50.71600475460667 L127.20698697163115,50.71600475460667 L127.20698697163115,37.607272719604 C127.70381938112104,35.42885369337904 129.69114901908063,29.08468600296959 135.19452340112258,29.08468600296959 C137.75512120387822,29.08468600296959 139.05452904408256,30.498747476133133 139.05452904408256,34.16766373082777 zM151.3606856483708,50.71600475460667 L155.64108794551453,50.71600475460667 L155.64108794551453,38.18054088440002 C156.2907918656167,34.51162462970541 158.0488142376579,29.428646901847202 161.67951261469943,29.428646901847202 C163.24644559847528,29.428646901847202 164.12545678449587,30.957362007969977 164.12545678449587,30.957362007969977 L166.49496519898614,27.594188774499884 C166.49496519898614,27.594188774499884 165.27199311408793,25.415769748274954 162.4820880454139,25.415769748274954 C158.58386452480084,25.415769748274954 156.32900974326978,28.54963571582661 155.48821643490226,30.91914413031691 L155.48821643490226,26.141909423683273 L151.3606856483708,26.141909423683273 zM171.15754627266057,50.71600475460667 L175.4379485698043,50.71600475460667 L175.4379485698043,37.607272719604 C175.8965631016411,35.42885369337904 177.8838927396007,29.08468600296959 183.38726712164265,29.08468600296959 C185.98608280205136,29.08468600296959 187.24727276460266,30.498747476133133 187.24727276460266,34.16766373082777 L187.24727276460266,50.71600475460667 L191.52767506174638,50.71600475460667 L191.52767506174638,32.94469164592957 C191.52767506174638,27.708842407459088 188.27915546123552,25.415769748274954 184.11340679705097,25.415769748274954 C178.30428939378447,25.415769748274954 176.01121673460034,29.352211146541066 175.28507705919202,31.033797763276112 L175.28507705919202,26.141909423683273 L171.15754627266057,26.141909423683273 zM214.3437480206286,50.71600475460667 L219.84712240267055,50.71600475460667 L208.87859151623974,37.22509394307329 L219.99999391328282,26.141909423683273 L214.49661953124087,26.141909423683273 L204.90393224032056,35.696378836950544 L203.83383166603463,35.696378836950544 L203.83383166603463,12.307037713272265 L199.55342936889087,12.307037713272265 L199.55342936889087,50.71600475460667 L203.83383166603463,50.71600475460667 L203.83383166603463,39.097769948073676 L205.01858587327976,39.097769948073676 z" stroke-width="0" id="svg_2"/></g><g data-v-fde0c5aa="" id="842b4c4a-4abe-49c4-8726-da5ba191a1aa" stroke="none" fill="#FFFFFF" class=""><path d="M49.01897638968735,37.13792722038647 l14.056173046516394,-0.5127788450445897 l0.11730235017359893,3.351495719245683 l-20.115677306912588,0.7306260667955591 l0.7339775625148047,-20.115677306912588 l3.351495719245683,0.12065384589284459 l-0.5094273493253436,14.052821550797146 l23.62469332496282,-23.621341829243573 A41.71606721745101,41.71606721745101 0 0 0 41.893696490571045,0.0000031554250483623036 C18.761673036337328,0.0000031554250483623036 0,18.758324696043132 0,41.893699645996094 c0,10.966093993371874 4.249696572003526,20.916684783812308 11.143723266491897,28.383817246291688 l23.62469332496282,-23.628044820682064 l-14.049470055077903,0.5127788450445897 l-0.12400534161209029,-3.351495719245683 l20.115677306912588,-0.7339775625148047 l-0.7339775625148047,20.115677306912588 l-3.351495719245683,-0.12065384589284459 l0.5094273493253436,-14.052821550797146 l-23.621341829243573,23.62469332496282 A41.685903755977805,41.685903755977805 0 0 0 41.893696490571045,83.78739613656711 C65.02571994480475,83.78739613656711 83.78739298114208,65.02907459594903 83.78739298114208,41.893699645996094 c0,-10.962742497652629 -4.249696572003526,-20.913333288093064 -11.14037177077265,-28.380465750572444 l-23.628044820682064,23.62469332496282 z" stroke-width="0" id="svg_3"/></g><g data-v-fde0c5aa="" id="a4909686-8659-43ec-b22c-b9d176f8eee6" fill="#FFFFFF" class=""><path d="M97.66358350168494,63.1990434367915 C97.66358350168494,62.78116795201552 97.90622087994194,62.14087487050395 99.32160558644122,62.14087487050395 C100.46739320598823,62.14087487050395 100.9931075255451,62.6396294813656 101.06724672445696,63.26644270852955 L101.79515885922802,63.26644270852955 C101.74123944183756,62.32959283137052 100.98636759837129,61.480362007470944 99.32160558644122,61.480362007470944 C97.75794248211821,61.480362007470944 96.97611092995672,62.1880543607206 96.97611092995672,63.20578336396531 C96.97611092995672,65.34908020523562 101.24922475814975,64.57398858024791 101.24922475814975,66.1039520487019 C101.24922475814975,66.83860411064674 100.58871189511675,67.20930010520607 99.5305433288292,67.20930010520607 C98.44541505384643,67.20930010520607 97.56922452125164,66.83860411064674 97.52204503103499,65.93545386935673 L96.78739296909015,65.93545386935673 C96.88175194952342,67.05428178020853 97.6366237929897,67.87655289541289 99.48336383861255,67.87655289541289 C101.02006723424034,67.87655289541289 101.95691711139938,67.23625981390131 101.95691711139938,66.07699234000665 C101.95691711139938,63.8932559356935 97.66358350168494,64.64812777915978 97.66358350168494,63.1990434367915 zM112.10724743515124,61.55450120638281 L112.10724743515124,64.33135120199091 L108.4744266884698,64.33135120199091 L108.4744266884698,61.55450120638281 L107.76673433522018,61.55450120638281 L107.76673433522018,67.80241369650102 L108.4744266884698,67.80241369650102 L108.4744266884698,65.01882377371913 L112.10724743515124,65.01882377371913 L112.10724743515124,67.80241369650102 L112.81493978840086,67.80241369650102 L112.81493978840086,61.55450120638281 zM119.7705446317687,65.40299962262606 L121.94080118173423,65.40299962262606 L123.45054486866678,67.80241369650102 L124.29303576539255,67.80241369650102 L122.64849353498386,65.28168093349757 C123.3494459610597,65.11992268132622 124.15823722191641,64.71552705089786 124.15823722191641,63.50908008678658 C124.15823722191641,62.32285290419671 123.33596610671208,61.55450120638281 122.05537994368893,61.55450120638281 L119.06285227851907,61.55450120638281 L119.06285227851907,67.80241369650102 L119.7705446317687,67.80241369650102 zM119.7705446317687,62.22849392376344 L121.96776089042947,62.22849392376344 C122.85743127737186,62.22849392376344 123.45054486866678,62.71376868027747 123.45054486866678,63.50908008678658 C123.45054486866678,64.47962959981464 122.60131404476724,64.73574683241927 121.93406125456042,64.73574683241927 L119.7705446317687,64.73574683241927 zM134.77362252066092,61.55450120638281 L134.77362252066092,66.81164440195153 L130.91838417724387,61.55450120638281 L130.09611306203954,61.55450120638281 L130.09611306203954,67.80241369650102 L130.80380541528916,67.80241369650102 L130.80380541528916,62.5250507194109 L134.65904375870622,67.80241369650102 L135.48131487391055,67.80241369650102 L135.48131487391055,61.55450120638281 zM146.91223136068555,61.55450120638281 L145.90798221178846,61.55450120638281 L142.43691971727839,64.80988603133113 L142.43691971727839,61.55450120638281 L141.72922736402873,61.55450120638281 L141.72922736402873,67.80241369650102 L142.43691971727839,67.80241369650102 L142.43691971727839,65.75347583566398 L143.73098573464912,64.5470288715527 L146.1708393715669,67.80241369650102 L147.0605097585093,67.80241369650102 L144.24996012703218,64.06849404221248 zM159.74505269961224,61.55450120638281 L158.90256180288648,61.55450120638281 L159.08453983657924,63.623658848741286 L159.5630746659195,63.623658848741286 zM170.26607901792346,62.23523385093722 L170.26607901792346,61.55450120638281 L165.66944868538775,61.55450120638281 L165.66944868538775,67.80241369650102 L170.26607901792346,67.80241369650102 L170.26607901792346,67.12168105194661 L166.37714103863738,67.12168105194661 L166.37714103863738,65.01882377371913 L169.84820353314745,65.01882377371913 L169.84820353314745,64.33135120199091 L166.37714103863738,64.33135120199091 L166.37714103863738,62.23523385093722 zM181.3802189275296,61.55450120638281 L179.18300266886882,64.52006916285748 L176.9453468471652,61.55450120638281 L176.12307573196088,61.55450120638281 L176.12307573196088,67.80241369650102 L176.8307680852105,67.80241369650102 L176.8307680852105,62.63288955419179 L179.18300266886882,65.60519743784025 L181.4947976894843,62.63288955419179 L181.4947976894843,67.80241369650102 L182.20249004273393,67.80241369650102 L182.20249004273393,61.55450120638281 zM197.97391962944005,61.55450120638281 L197.09098916967145,61.55450120638281 L194.43545786319186,67.80241369650102 L195.22402934252716,67.80241369650102 L195.98564111316722,65.9893732867472 L199.07926768594422,65.9893732867472 L199.84761938375811,67.80241369650102 L200.6294509359196,67.80241369650102 zM196.26197812729328,65.34234027806181 L197.53582436314264,62.28915326832768 L198.80967059899194,65.34234027806181 zM206.13597143691914,61.55450120638281 L206.13597143691914,67.80241369650102 L210.25406694011463,67.80241369650102 L210.25406694011463,67.12168105194661 L206.84366379016876,67.12168105194661 L206.84366379016876,61.55450120638281 zM215.88864605741645,61.55450120638281 L215.88864605741645,67.80241369650102 L220.0000016334381,67.80241369650102 L220.0000016334381,67.12168105194661 L216.59633841066608,67.12168105194661 L216.59633841066608,61.55450120638281 z" stroke-width="0" id="svg_4"/></g></g></svg>