<svg xmlns="http://www.w3.org/2000/svg" data-v-fde0c5aa="" width="233" height="220"  viewBox="0 0 233 220"><rect id="backgroundrect" width="100%" height="100%" x="0" y="0" fill="none" stroke="none" class="" style=""/><!----><defs data-v-fde0c5aa=""><!----></defs><defs data-v-fde0c5aa=""><!----></defs><defs data-v-fde0c5aa=""><!----></defs><defs data-v-fde0c5aa=""><!----></defs><g class="currentLayer" style=""><title>Layer 1</title><g data-v-fde0c5aa="" id="ebad1319-413d-462e-a1ee-7f5ab097e518" fill="#FFFFFF" class=""><path d="M0.06881685521945258,186.53964262077392 C-0.943274946299276,196.73285290749826 9.394519883499186,200.9258046566473 18.792515183315963,200.9258046566473 C29.41947909926263,200.9258046566473 37.154752153727216,195.6484688344425 37.154752153727216,186.3950580776998 C37.154752153727216,169.18949745188138 9.900565784258546,175.69580189021607 9.900565784258546,164.05674617275068 C9.900565784258546,160.0806712382128 13.370594818037048,158.27336444978653 18.57563836870481,158.27336444978653 C26.889249595465813,158.27336444978653 28.118218211595703,163.26153118584313 27.539880039299277,166.51468340501046 L35.63661445144912,165.0688379742694 C37.22704442526427,156.0323040321379 28.84114092696622,151.62247546837773 19.009391997927125,151.62247546837773 C7.29804400892467,151.62247546837773 1.586954557497549,157.6950262774901 1.586954557497549,165.50259160349174 C1.586954557497549,182.34669087162487 28.624264112355064,176.63560142019776 28.624264112355064,187.9131957799779 C28.624264112355064,192.17843980066397 24.503604634743084,194.20262340370144 18.503346097167757,194.20262340370144 C10.69578077116612,194.20262340370144 7.29804400892467,190.29884074070063 7.804089909684038,185.310674004644 zM79.95177690366211,199.47995922590627 L88.04851131581194,199.47995922590627 L88.04851131581194,165.86405296117698 C88.04851131581194,155.96001176060085 81.83137596362546,151.62247546837773 73.95151836608677,151.62247546837773 C63.75830807936241,151.62247546837773 59.20389497252812,158.05648763517536 57.54117272717593,161.52651666895386 L57.54117272717593,126.82622633116881 L49.44443831502609,126.82622633116881 L49.44443831502609,199.47995922590627 L57.54117272717593,199.47995922590627 L57.54117272717593,174.68371008869735 C58.4809722571576,170.56305061108537 62.24017037708431,158.56253353593473 72.65025747841983,158.56253353593473 C77.49383967140233,158.56253353593473 79.95177690366211,161.23734758280565 79.95177690366211,168.17740565036266 zM103.2298883385929,199.47995922590627 L111.32662275074276,199.47995922590627 L111.32662275074276,175.76809416175314 C112.55559136687265,168.82803609419614 115.88103585757705,159.21316397976818 122.74880165359698,159.21316397976818 C125.71278478661614,159.21316397976818 127.37550703196834,162.10485484125027 127.37550703196834,162.10485484125027 L131.85762786726553,155.74313494598968 C131.85762786726553,155.74313494598968 129.54427517807991,151.62247546837773 124.26693935587508,151.62247546837773 C116.89312765909577,151.62247546837773 112.62788363840971,157.55044173441598 111.03745366459452,162.03256256971324 L111.03745366459452,152.9960286275817 L103.2298883385929,152.9960286275817 zM140.67728499478594,199.47995922590627 L148.7740194069358,199.47995922590627 L148.7740194069358,174.68371008869735 C149.64152666538038,170.56305061108537 153.4007247853071,158.56253353593473 163.81081188664263,158.56253353593473 C168.72668635116216,158.56253353593473 171.1123313118849,161.23734758280565 171.1123313118849,168.17740565036266 L171.1123313118849,199.47995922590627 L179.20906572403473,199.47995922590627 L179.20906572403473,165.86405296117698 C179.20906572403473,155.96001176060085 173.0642226433853,151.62247546837773 165.18436504584662,151.62247546837773 C154.1959397722147,151.62247546837773 149.85840347999155,159.06857943669408 148.48485032078756,162.24943938432438 L148.48485032078756,152.9960286275817 L140.67728499478594,152.9960286275817 zM222.36755183165488,199.47995922590627 L232.77763893299039,199.47995922590627 L212.02975700185644,173.9607873733268 L233.0668080191386,152.9960286275817 L222.6567209178031,152.9960286275817 L204.511360762003,171.06909651184475 L202.48717715896555,171.06909651184475 L202.48717715896555,126.82622633116881 L194.3904427468157,126.82622633116881 L194.3904427468157,199.47995922590627 L202.48717715896555,199.47995922590627 L202.48717715896555,177.50310867864238 L204.72823757661416,177.50310867864238 z" stroke-width="0" id="svg_2"/></g><g data-v-fde0c5aa="" id="5f313636-2a69-4e68-be2c-9193628f5645" stroke="none" fill="#FFFFFF" class=""><path d="M125.78799167162742,48.23613412957221 l18.256688253611237,-0.6660165242733715 l0.1523567212390065,4.353049178257329 l-26.127001167900488,0.9489647208600979 l0.9533177700383553,-26.127001167900488 l4.353049178257329,0.15670977041726392 l-0.6616634750951143,18.25233520443298 l30.684643657535915,-30.68029060835766 A54.18240312176897,54.18240312176897 0 0 0 116.53340911865234,-0.0000038146972514141453 C86.48866369032024,-0.0000038146972514141453 62.12029439043572,24.36401243600902 62.12029439043572,54.41311091351936 c0,14.243176911257983 5.5196663580302925,27.16737992150399 14.473888517705621,36.86597349066132 l30.684643657535915,-30.68899670671417 l-18.247982155254725,0.6660165242733715 l-0.16106281959552124,-4.353049178257329 l26.127001167900488,-0.9533177700383553 l-0.9533177700383553,26.127001167900488 l-4.353049178257329,-0.15670977041726392 l0.6616634750951143,-18.25233520443298 l-30.68029060835766,30.684643657535915 A54.143225679164665,54.143225679164665 0 0 0 116.53340911865234,108.82622564173596 C146.57815454698442,108.82622564173596 170.94652384686896,84.4622093910297 170.94652384686896,54.41311091351936 c0,-14.238823862079723 -5.5196663580302925,-27.163026872325737 -14.469535468527361,-36.86162044148306 l-30.68899670671417,30.684643657535915 z" stroke-width="0" id="svg_3"/></g><g data-v-fde0c5aa="" id="9f65e6dc-a4c2-49a5-a674-41bd4d01623b" fill="#FFFFFF" class=""><path d="M30.376391350898587,213.364074945042 C30.376391350898587,212.7712404549573 30.720617829012284,211.86286502660172 32.72860561800883,211.86286502660172 C34.35411954243462,211.86286502660172 35.09994357834762,212.57044167605764 35.20512389110458,213.4596934111847 L36.23780332544567,213.4596934111847 C36.16130855253151,212.13059673180126 35.090381731733345,210.92580405840334 32.72860561800883,210.92580405840334 C30.510257203498362,210.92580405840334 29.40108299624312,211.92979795290162 29.40108299624312,213.37363679165628 C29.40108299624312,216.4143040149939 35.46329374968985,215.31469165435294 35.46329374968985,217.4852308357921 C35.46329374968985,218.52747211674745 34.52623278149146,219.05337368053222 33.02502286305118,219.05337368053222 C31.485565558153823,219.05337368053222 30.242525498298818,218.52747211674745 30.175592571998934,217.24618467043535 L29.13335129104358,217.24618467043535 C29.26721714364335,218.83345120840403 30.338143964441514,219.99999649534487 32.95808993675129,219.99999649534487 C35.13819096480469,219.99999649534487 36.46728764418813,219.09162106698932 36.46728764418813,217.446983449335 C36.46728764418813,214.34894514631173 30.376391350898587,215.4198719671099 30.376391350898587,213.364074945042 zM50.867428645277684,211.0309843711603 L50.867428645277684,214.97046517623926 L45.71359332018653,214.97046517623926 L45.71359332018653,211.0309843711603 L44.70959942568825,211.0309843711603 L44.70959942568825,219.89481618258793 L45.71359332018653,219.89481618258793 L45.71359332018653,215.9457735308947 L50.867428645277684,215.9457735308947 L50.867428645277684,219.89481618258793 L51.87142253977595,219.89481618258793 L51.87142253977595,211.0309843711603 zM61.73924824570187,216.4907987879081 L64.81816285549658,216.4907987879081 L66.9600164970929,219.89481618258793 L68.15524732387655,219.89481618258793 L65.82215674999486,216.3186855488512 C66.81658879787886,216.08920123010876 67.96401039159117,215.5154904332526 67.96401039159117,213.80391988929838 C67.96401039159117,212.121034885187 66.79746510465031,211.0309843711603 64.98071424793915,211.0309843711603 L60.735254351203594,211.0309843711603 L60.735254351203594,219.89481618258793 L61.73924824570187,219.89481618258793 zM61.73924824570187,211.98716903258722 L64.85641024195365,211.98716903258722 C66.1185739950372,211.98716903258722 66.9600164970929,212.6756219888146 66.9600164970929,213.80391988929838 C66.9600164970929,215.18082580175317 65.75522382369496,215.5441759730954 64.8086010088823,215.5441759730954 L61.73924824570187,215.5441759730954 zM83.02391880906532,211.0309843711603 L83.02391880906532,218.48922473029035 L77.55454254570327,211.0309843711603 L76.38799725876243,211.0309843711603 L76.38799725876243,219.89481618258793 L77.3919911532607,219.89481618258793 L77.3919911532607,212.40789028361507 L82.86136741662273,219.89481618258793 L84.02791270356359,219.89481618258793 L84.02791270356359,211.0309843711603 zM100.24480456136428,211.0309843711603 L98.8200894158382,211.0309843711603 L93.8957384094895,215.64935628585238 L93.8957384094895,211.0309843711603 L92.89174451499122,211.0309843711603 L92.89174451499122,219.89481618258793 L93.8957384094895,219.89481618258793 L93.8957384094895,216.98801481185006 L95.73161295942919,215.27644426789587 L99.19300143379468,219.89481618258793 L100.45516518687822,219.89481618258793 L96.46787514872796,214.59755315828275 zM118.45056051493304,211.0309843711603 L117.25532968814937,211.0309843711603 L117.51349954673464,213.96647128174098 L118.19239065634775,213.96647128174098 zM133.3766030798074,211.9967308792015 L133.3766030798074,211.0309843711603 L126.85542368887576,211.0309843711603 L126.85542368887576,219.89481618258793 L133.3766030798074,219.89481618258793 L133.3766030798074,218.92906967454672 L127.85941758337401,218.92906967454672 L127.85941758337401,215.9457735308947 L132.78376858972268,215.9457735308947 L132.78376858972268,214.97046517623926 L127.85941758337401,214.97046517623926 L127.85941758337401,211.9967308792015 zM149.14408814673746,211.0309843711603 L146.02692615048568,215.2381968814388 L142.85239307454827,211.0309843711603 L141.68584778760743,211.0309843711603 L141.68584778760743,219.89481618258793 L142.68984168210568,219.89481618258793 L142.68984168210568,212.5608798294434 L146.02692615048568,216.77765418633612 L149.30663953918003,212.5608798294434 L149.30663953918003,219.89481618258793 L150.31063343367833,219.89481618258793 L150.31063343367833,211.0309843711603 zM172.68535451106845,211.0309843711603 L171.4327526045992,211.0309843711603 L167.66538503857709,219.89481618258793 L168.78412109244658,219.89481618258793 L169.864609759859,217.3226794433495 L174.2534973558086,217.3226794433495 L175.34354786983533,219.89481618258793 L176.45272207709056,219.89481618258793 zM170.25664547104404,216.40474216837964 L172.06383448114096,212.07322565211564 L173.87102349123785,216.40474216837964 zM184.26475076094857,211.0309843711603 L184.26475076094857,219.89481618258793 L190.1070390422671,219.89481618258793 L190.1070390422671,218.92906967454672 L185.26874465544685,218.92906967454672 L185.26874465544685,211.0309843711603 zM198.10074281179624,211.0309843711603 L198.10074281179624,219.89481618258793 L203.9334692465005,219.89481618258793 L203.9334692465005,218.92906967454672 L199.10473670629452,218.92906967454672 L199.10473670629452,211.0309843711603 z" stroke-width="0" id="svg_4"/></g></g></svg>